<svg width="42" height="42" viewBox="0 0 42 42" fill="none" xmlns="http://www.w3.org/2000/svg">
<g id="handshake 1" clip-path="url(#clip0_625_928)">
<path id="Vector" d="M40.2518 26.2518H39.0845C38.647 26.2518 38.213 26.285 37.7808 26.3515L25.4503 17.1045L28.4043 14.2765C29.1025 13.608 29.127 12.4985 28.4585 11.802C27.7882 11.1037 26.6788 11.081 25.984 11.7477L18.6813 18.739C18.3173 19.103 17.822 19.2902 17.3023 19.2465C16.7808 19.2045 16.3223 18.9403 16.009 18.5028C15.5295 17.8377 15.6765 16.7965 16.303 16.1683L24.5333 8.4175C26.0925 6.95275 28.5303 6.594 30.4378 7.55125L34.4908 9.57775C35.6983 10.1815 37.0528 10.5 38.402 10.5H40.25C41.2178 10.5 42 9.71775 42 8.75C42 7.78225 41.2178 7 40.25 7H38.402C37.5918 7 36.778 6.80925 36.0535 6.447L32.004 4.4205C28.812 2.82275 24.7363 3.416 22.1323 5.8695L21.0508 6.888L19.8258 5.7715C18.2175 4.30675 16.135 3.5 13.8933 3.5C12.544 3.5 11.1983 3.8185 9.996 4.41875L5.9465 6.44525C5.22025 6.8075 4.4065 6.99825 3.59625 6.99825H1.75175C0.784 6.99825 0.00175 7.7805 0.00175 8.74825C0.00175 9.716 0.784 10.4983 1.75175 10.4983H3.59975C4.949 10.4983 6.3035 10.178 7.51275 9.576L11.5658 7.5495C13.3542 6.65 15.8673 6.89325 17.4703 8.358L18.4975 9.29425L13.867 13.6552C11.9893 15.5312 11.69 18.4975 13.1705 20.5468C14.0805 21.812 15.8883 22.75 17.4475 22.75C18.8353 22.75 20.167 22.204 21.1295 21.2397L22.89 19.5545L33.9955 27.8828C33.9412 27.9213 23.149 36.0132 23.149 36.0132C21.8838 36.9967 20.118 36.9967 18.8265 35.994L8.16725 28C6.664 26.8713 4.7985 26.25 2.91725 26.25H1.75C0.78225 26.25 0 27.0322 0 28C0 28.9678 0.78225 29.75 1.75 29.75H2.91725C4.046 29.75 5.16425 30.1228 6.06725 30.8L16.702 38.7765C17.9708 39.7635 19.4915 40.257 21.0088 40.257C22.5173 40.257 24.024 39.7687 25.2735 38.7957L35.9363 30.8018C36.8375 30.1245 37.9558 29.7518 39.0845 29.7518H40.2518C41.2195 29.7518 42.0018 28.9695 42.0018 28.0018C42.0018 27.034 41.2195 26.2518 40.2518 26.2518Z" fill="#03554D"/>
</g>
<defs>
<clip-path id="clip0_625_928">
<rect width="42" height="42" fill="white"/>
</clip-path>
</defs>
</svg>
