<svg width="80" height="122" viewBox="0 0 80 122" fill="none" xmlns="http://www.w3.org/2000/svg">
<g id="2">
<path id="2_2" d="M8.49587 31.6788C8.64647 26.0773 10.0698 21.0495 12.7518 16.5729L12.7539 16.5693C15.6117 11.7539 19.3756 7.97255 24.0518 5.20871L24.0543 5.20719C28.7672 2.40274 33.9204 1 39.5345 1C45.2404 1 50.4123 2.42596 55.0739 5.27152L55.08 5.27517C59.7581 8.08549 63.4995 11.89 66.3115 16.7036C69.1125 21.4982 70.5175 26.8159 70.5175 32.6788C70.5175 35.735 69.9657 38.8242 68.8522 41.9506C67.7312 45.0985 66.1573 48.2814 64.1239 51.4995C62.0826 54.7299 59.6743 58.0132 56.8965 61.3491C54.1104 64.648 51.025 68.0429 47.6395 71.5338L47.6395 71.5339C44.2913 74.9868 40.759 78.5338 37.0425 82.1749L35.2926 83.8892H37.7423H71V99H8V85.2051C10.9147 82.9602 14.3319 80.2245 18.2506 76.9993L18.2558 76.995C22.3574 73.5723 26.5727 69.893 30.9018 65.9573L30.9061 65.9533C35.2438 61.9628 39.2609 57.9701 42.9568 53.975C46.662 49.9699 49.6875 46.1373 52.024 42.4773C54.4082 38.8141 55.6988 35.5333 55.6988 32.6788C55.6988 29.6593 54.9671 26.889 53.4945 24.3906C52.0353 21.8681 50.082 19.8539 47.6413 18.3632C45.2228 16.8579 42.5117 16.1108 39.5345 16.1108C36.5555 16.1108 33.8235 16.8587 31.3623 18.361C28.9199 19.8519 26.9654 21.8669 25.5055 24.3905C24.197 26.6106 23.4734 29.0453 23.3284 31.6788H8.49587Z" stroke="#03554D" stroke-width="2"/>
</g>
</svg>
