<svg width="42" height="42" viewBox="0 0 42 42" fill="none" xmlns="http://www.w3.org/2000/svg">
<g id="star 1" clip-path="url(#clip0_625_935)">
<path id="Vector" d="M41.7136 15.3891C41.3556 14.2496 40.6405 13.2556 39.6739 12.5541C38.7073 11.8526 37.5406 11.4807 36.3463 11.4936H28.7006L26.3783 4.25555C26.0131 3.11623 25.2955 2.12233 24.329 1.41717C23.3625 0.712008 22.197 0.332031 21.0006 0.332031C19.8042 0.332031 18.6387 0.712008 17.6721 1.41717C16.7056 2.12233 15.988 3.11623 15.6228 4.25555L13.3006 11.4936H5.65483C4.46438 11.4952 3.30492 11.8731 2.34205 12.5731C1.37918 13.2732 0.662153 14.2596 0.293394 15.3915C-0.0753647 16.5234 -0.0769968 17.7429 0.288731 18.8757C0.654458 20.0086 1.36884 20.9969 2.32983 21.6996L8.55283 26.2496L6.18683 33.5768C5.80448 34.7132 5.79963 35.9428 6.17302 37.0822C6.54641 38.2216 7.27804 39.2098 8.25883 39.8996C9.22282 40.6114 10.391 40.9928 11.5894 40.9868C12.7877 40.9808 13.952 40.5878 14.9088 39.8663L21.0006 35.3828L27.0941 39.8611C28.0563 40.5688 29.2182 40.9533 30.4127 40.9591C31.6072 40.9649 32.7728 40.5918 33.7419 39.8934C34.711 39.1951 35.4337 38.2074 35.8061 37.0724C36.1785 35.9374 36.1813 34.7135 35.8143 33.5768L33.4483 26.2496L39.6783 21.6996C40.6503 21.0058 41.3731 20.0174 41.7396 18.8809C42.1062 17.7444 42.097 16.52 41.7136 15.3891ZM37.6133 18.8733L30.3613 24.1741C30.0635 24.3913 29.8418 24.6972 29.7281 25.0479C29.6143 25.3986 29.6142 25.7763 29.7278 26.1271L32.4841 34.6496C32.6236 35.0818 32.6224 35.5472 32.4807 35.9787C32.339 36.4102 32.0641 36.7857 31.6956 37.0512C31.327 37.3167 30.8838 37.4584 30.4296 37.4561C29.9754 37.4538 29.5336 37.3075 29.1678 37.0383L22.0366 31.7883C21.7362 31.5677 21.3733 31.4487 21.0006 31.4487C20.6279 31.4487 20.2649 31.5677 19.9646 31.7883L12.8333 37.0383C12.4677 37.3112 12.0247 37.4605 11.5685 37.4646C11.1124 37.4688 10.6667 37.3275 10.2962 37.0613C9.92574 36.7951 9.64964 36.4179 9.50797 35.9843C9.36631 35.5506 9.36643 35.0831 9.50833 34.6496L12.2733 26.1271C12.3869 25.7763 12.3869 25.3986 12.2731 25.0479C12.1593 24.6972 11.9377 24.3913 11.6398 24.1741L4.38783 18.8733C4.02261 18.6059 3.75124 18.2299 3.61248 17.7991C3.47372 17.3682 3.47466 16.9045 3.61518 16.4742C3.7557 16.0439 4.0286 15.6691 4.3949 15.4031C4.76121 15.1372 5.20218 14.9939 5.65483 14.9936H14.5798C14.9503 14.9935 15.3113 14.8759 15.6107 14.6577C15.9101 14.4394 16.1325 14.1318 16.2458 13.7791L18.9583 5.3248C19.0976 4.89218 19.3705 4.51489 19.7378 4.24724C20.1051 3.97959 20.5479 3.83539 21.0023 3.83539C21.4568 3.83539 21.8996 3.97959 22.2669 4.24724C22.6342 4.51489 22.9071 4.89218 23.0463 5.3248L25.7588 13.7791C25.8722 14.1318 26.0946 14.4394 26.394 14.6577C26.6934 14.8759 27.0543 14.9935 27.4248 14.9936H36.3498C36.8025 14.9939 37.2435 15.1372 37.6098 15.4031C37.9761 15.6691 38.249 16.0439 38.3895 16.4742C38.53 16.9045 38.5309 17.3682 38.3922 17.7991C38.2534 18.2299 37.9821 18.6059 37.6168 18.8733H37.6133Z" fill="#03554D"/>
</g>
<defs>
<clip-path id="clip0_625_935">
<rect width="42" height="42" fill="white"/>
</clip-path>
</defs>
</svg>
