<svg width="42" height="42" viewBox="0 0 42 42" fill="none" xmlns="http://www.w3.org/2000/svg">
  <g id="bullhorn 1" clip-path="url(#clip0_625_920)">
    <path id="Vector"
      d="M42 16.6232C42 14.5075 40.4967 12.7417 38.5 12.3357V1.74822C38.5 0.836474 37.8018 0.0787242 36.8952 0.00347421C35.9958 -0.0805258 35.175 0.561724 35.0245 1.45947C34.3438 5.54222 28.6895 6.99822 23.625 6.99822H9.625C4.31725 6.99822 0 11.3155 0 16.6232C0 19.5125 1.281 22.1095 3.304 23.8752L8.8025 38.5455C9.282 39.8615 10.248 40.915 11.5185 41.5065C12.2237 41.8355 12.9763 42 13.7305 42C14.3378 42 14.945 41.8932 15.533 41.6797C16.849 41.2002 17.9025 40.2342 18.494 38.9637C19.0855 37.6915 19.1467 36.267 18.6672 34.9527L15.512 26.2482H23.625C28.6895 26.2482 34.3438 27.7025 35.0245 31.787C35.1662 32.6357 35.9013 33.2482 36.7483 33.2482C36.7973 33.2482 36.8463 33.2482 36.8935 33.243C37.8018 33.1677 38.4983 32.41 38.4983 31.4982V20.9107C40.495 20.5047 42 18.7407 42 16.6232ZM9.625 10.4982H12.243L12.1905 22.7482H9.62675C6.24925 22.7482 3.50175 20.0007 3.50175 16.6232C3.50175 13.2457 6.2475 10.4982 9.625 10.4982ZM15.379 36.148C15.5382 36.5855 15.519 37.0615 15.3212 37.485C15.1235 37.9085 14.7735 38.2305 14.3342 38.3915C13.8967 38.5525 13.4207 38.5315 12.9972 38.3337C12.5738 38.136 12.2517 37.786 12.0855 37.3327L7.8715 26.089C8.44025 26.194 9.0265 26.25 9.625 26.25H11.7898L15.379 36.1497V36.148ZM35 25.7215C32.3978 23.8052 28.49 22.7482 23.625 22.7482H15.6888L15.7413 10.4982H23.6232C28.4882 10.4982 32.396 9.44122 34.9983 7.52497V25.7197L35 25.7215Z"
      fill="#03554D" />
  </g>
  <defs>
    <clip-path id="clip0_625_920">
      <rect width="42" height="42" fill="none" />
    </clip-path>
  </defs>
</svg>