<svg width="66" height="101" viewBox="0 0 66 101" fill="none" xmlns="http://www.w3.org/2000/svg">
<g id="3">
<path id="3_2" d="M3.42995 27.9662C3.55398 24.5396 4.31912 21.3258 5.72153 18.3156L5.72364 18.311C7.27117 14.945 9.39093 12.003 12.0868 9.47896C14.8369 6.94707 17.9393 4.97173 21.3989 3.55001L21.3989 3.55003L21.4048 3.54757C24.8981 2.08588 28.5432 1.35547 32.3477 1.35547C37.3459 1.35547 41.9546 2.59366 46.1932 5.07032C50.4465 7.55562 53.8516 10.8783 56.4199 15.0478C58.9726 19.1918 60.2536 23.8229 60.2536 28.9662C60.2536 32.518 59.4231 36.0143 57.7452 39.4642C56.0934 42.8604 53.7792 45.1994 50.8129 46.5577L48.5886 47.5762L50.8895 48.4074C53.5017 49.3511 55.683 50.9341 57.4468 53.1748L57.4468 53.1748L57.4527 53.1822C59.2478 55.4189 60.6103 57.9901 61.5364 60.9058L61.5392 60.9145L61.5421 60.9232C62.5157 63.8045 63 66.6997 63 69.6127C63 75.0744 61.6286 80.0515 58.8895 84.5662C56.1375 89.0564 52.4796 92.6545 47.904 95.3689C43.3957 98.0246 38.4235 99.3555 32.9657 99.3555C27.3175 99.3555 22.254 98.0212 17.7502 95.3674C13.2261 92.7017 9.64048 89.1318 6.98075 84.6477C4.49083 80.4069 3.16651 75.7347 3.01473 70.6127H17.782C17.9194 72.9573 18.5453 75.1309 19.6673 77.1192L19.6713 77.1264L19.6754 77.1334C20.9987 79.3916 22.8143 81.208 25.1066 82.576L25.1134 82.58L25.1203 82.584C27.4391 83.9183 30.0633 84.5742 32.9657 84.5742C35.6556 84.5742 38.1624 83.9105 40.4678 82.584L40.4735 82.5806C42.8065 81.2174 44.6872 79.4087 46.1021 77.1605C47.5331 74.8868 48.247 72.3628 48.247 69.6127C48.247 66.0816 47.3017 63.0742 45.3491 60.6649C43.4259 58.2461 40.761 56.4756 37.4124 55.3252C34.3828 54.2699 30.9177 53.711 27.031 53.6299V42.6785C32.3615 42.558 36.7224 41.4596 40.0327 39.2961C43.6747 36.9463 45.5006 33.4572 45.5006 28.9662C45.5006 26.6316 44.9028 24.478 43.7048 22.528C42.521 20.6011 40.9388 19.0647 38.9705 17.9283C37.0267 16.7332 34.8802 16.1368 32.5537 16.1368C30.1847 16.1368 27.8979 16.7311 25.7049 17.9012C23.5172 19.0226 21.7055 20.5412 20.2845 22.4554L20.2796 22.4621L20.2747 22.4689C19.0735 24.1449 18.381 25.9828 18.2081 27.9662H3.42995Z" stroke="#03554D" stroke-width="2"/>
</g>
</svg>
