<svg width="24" height="24" viewBox="0 0 24 24" fill="none" xmlns="http://www.w3.org/2000/svg">
  <path
    d="M22.1739 1.82141L21.1239 0.911406C19.9139 -0.298594 17.9539 -0.298594 16.7439 0.911406C16.7139 0.941406 14.8639 3.35141 14.8639 3.35141C13.7239 4.55141 13.7239 6.44141 14.8639 7.63141L16.0239 9.09141C14.5639 12.4014 12.2939 14.6814 9.09385 16.0414L7.63385 14.8714C6.44385 13.7214 4.54385 13.7214 3.35385 14.8714C3.35385 14.8714 0.943849 16.7214 0.913849 16.7514C-0.296151 17.9614 -0.296151 19.9214 0.863849 21.0814L1.86385 22.2314C3.01385 23.3814 4.56385 24.0114 6.24385 24.0114C13.8839 24.0114 24.0039 13.8814 24.0039 6.25141C24.0039 4.58141 23.3739 3.02141 22.1739 1.83141V1.82141ZM6.24385 22.0014C5.10385 22.0014 4.05385 21.5814 3.33385 20.8514L2.33385 19.7014C1.92385 19.2914 1.90385 18.6214 2.29385 18.1914C2.29385 18.1914 4.68385 16.3514 4.71385 16.3214C5.12385 15.9114 5.84385 15.9114 6.26385 16.3214C6.29385 16.3514 8.30385 17.9614 8.30385 17.9614C8.58385 18.1814 8.95385 18.2414 9.28385 18.1114C13.4239 16.5314 16.3939 13.5714 18.1039 9.30141C18.2339 8.97141 18.1839 8.59141 17.9539 8.30141C17.9539 8.30141 16.3439 6.28141 16.3239 6.26141C15.8939 5.83141 15.8939 5.14141 16.3239 4.71141C16.3539 4.68141 18.1939 2.29141 18.1939 2.29141C18.6239 1.90141 19.2939 1.91141 19.7539 2.37141L20.8039 3.28141C21.5739 4.05141 22.0039 5.10141 22.0039 6.24141C22.0039 13.2014 12.2339 22.0014 6.24385 22.0014Z"
    fill="#03554D" />
</svg>