<svg width="16" height="16" viewBox="0 0 16 16" fill="none" xmlns="http://www.w3.org/2000/svg">
  <g id="Youtobe" clip-path="url(#clip0_720_154)">
    <path id="Vector"
      d="M10.4645 7.28027L6.92968 5.34619C6.72644 5.23499 6.4862 5.23914 6.28699 5.35718C6.08765 5.47534 5.96875 5.68408 5.96875 5.91577V9.75072C5.96875 9.98131 6.08691 10.1897 6.28491 10.308C6.3883 10.3697 6.50293 10.4007 6.6178 10.4007C6.72302 10.4007 6.82849 10.3747 6.92553 10.3225L10.4604 8.42174C10.6703 8.30883 10.8013 8.09069 10.8022 7.85229C10.8031 7.61388 10.6737 7.39477 10.4645 7.28027ZM6.90637 9.2683V6.4021L9.5482 7.84765L6.90637 9.2683Z"
      fill="#03554D" />
    <path id="Vector_2"
      d="M15.8823 4.79772L15.8815 4.79039C15.868 4.66161 15.7331 3.51611 15.1762 2.93347C14.5325 2.24817 13.8028 2.16492 13.4519 2.125C13.4228 2.1217 13.3962 2.11865 13.3724 2.11548L13.3444 2.11255C11.2292 1.95874 8.03476 1.93774 8.00278 1.93762L7.99997 1.9375L7.99716 1.93762C7.96518 1.93774 4.77073 1.95874 2.63646 2.11255L2.60827 2.11548C2.58556 2.11853 2.56054 2.12134 2.53332 2.12451C2.18639 2.16455 1.46447 2.24792 0.818967 2.958C0.288573 3.53442 0.135253 4.65539 0.119506 4.78136L0.117675 4.79772C0.112915 4.85131 0 6.12706 0 7.40782V8.60508C0 9.88583 0.112915 11.1616 0.117675 11.2153L0.11853 11.2234C0.13208 11.3501 0.266845 12.4746 0.821164 13.0575C1.42639 13.7198 2.19164 13.8074 2.60326 13.8546C2.66832 13.862 2.72435 13.8684 2.76256 13.8751L2.79955 13.8802C4.02086 13.9964 7.85007 14.0537 8.01242 14.056L8.0173 14.0561L8.02219 14.056C8.05417 14.0559 11.2485 14.0349 13.3637 13.8811L13.3917 13.8781C13.4184 13.8746 13.4484 13.8714 13.4814 13.868C13.8264 13.8314 14.5444 13.7553 15.181 13.0549C15.7114 12.4784 15.8648 11.3574 15.8804 11.2315L15.8823 11.2152C15.887 11.1615 16.0001 9.88583 16.0001 8.60508V7.40782C15.9999 6.12706 15.887 4.85143 15.8823 4.79772ZM15.0623 8.60508C15.0623 9.7905 14.9588 11.0113 14.949 11.1234C14.9092 11.4321 14.7475 12.1413 14.4891 12.4222C14.0906 12.8606 13.6813 12.904 13.3825 12.9356C13.3464 12.9394 13.3129 12.9431 13.2827 12.9469C11.2368 13.0948 8.16293 13.1175 8.02133 13.1184C7.86252 13.116 4.08934 13.0583 2.90526 12.9483C2.84459 12.9384 2.77904 12.9309 2.70995 12.9231C2.35949 12.8829 1.87975 12.828 1.51086 12.4222L1.50219 12.4129C1.24829 12.1484 1.09118 11.4852 1.05127 11.127C1.04382 11.0423 0.937618 9.8071 0.937618 8.60508V7.40782C0.937618 6.22374 1.04089 5.00426 1.0509 4.88988C1.09838 4.52624 1.26318 3.85998 1.51086 3.59069C1.9215 3.13903 2.35448 3.08898 2.64086 3.0559C2.6682 3.05273 2.69372 3.0498 2.71727 3.04675C4.79295 2.89807 7.88889 2.87597 7.99997 2.87512C8.11105 2.87585 11.2059 2.89807 13.2631 3.04675C13.2884 3.04992 13.316 3.0531 13.3457 3.05651C13.6402 3.09008 14.0854 3.14086 14.494 3.57665L14.4977 3.58068C14.7517 3.84521 14.9088 4.52001 14.9487 4.88536C14.9558 4.96532 15.0623 6.20323 15.0623 7.40782V8.60508Z"
      fill="#03554D" />
  </g>
  <defs>
    <clip-path id="clip0_720_154">
      <rect width="16" height="15.9999" fill="white" />
    </clip-path>
  </defs>
</svg>