<svg width="181" height="52" viewBox="0 0 181 52" fill="none" xmlns="http://www.w3.org/2000/svg">
<g id="logo">
<g id="Livello 1">
<path id="Vector" d="M115.454 36.3702H113.186V34.8465H115.568V34.4398H112.733V38.9363H115.614L115.677 38.5296H113.191V36.7768H115.46V36.3702H115.454ZM108.122 38.9363H108.58V36.8399H110.78V36.4332H108.58V34.8465H110.923V34.4398H108.122V38.9363ZM105.338 38.9363H105.796V34.4398H105.338V38.9363ZM100.79 38.9363H103.563L103.637 38.5296H101.254V34.4398H100.796V38.9363H100.79ZM96.2192 35.0126H97.2216C97.8059 35.0126 98.098 35.2704 98.098 35.7229C98.098 36.204 97.8174 36.4504 97.1586 36.4504H96.2135V35.0126H96.2192ZM97.0842 37.0002C97.8746 37.0002 98.0407 37.2695 98.0407 37.8766V37.9683C98.0407 38.3979 98.0407 38.7473 98.1209 38.9363H98.7625C98.688 38.7473 98.6995 38.3635 98.6995 38.0542V37.8537C98.6995 37.0747 98.3787 36.8055 98.0407 36.7138C98.4474 36.5936 98.7797 36.2441 98.7797 35.6599C98.7797 34.9611 98.2813 34.457 97.3534 34.457H95.5663V38.9306H96.2192V36.9945H97.0842V37.0002ZM91.7915 34.9553C92.7481 34.9553 93.1891 35.7401 93.1891 36.6852C93.1891 37.6303 92.7939 38.4437 91.7915 38.4437C90.8636 38.4437 90.3882 37.6303 90.3882 36.6795C90.3882 35.7286 90.8178 34.9553 91.7915 34.9553ZM91.8202 34.394C90.4569 34.394 89.6951 35.4136 89.6951 36.6967C89.6951 37.9797 90.4283 38.9993 91.7629 38.9993C93.1834 38.9993 93.8822 37.9053 93.8822 36.6737C93.8822 35.3334 93.086 34.394 91.8144 34.394M85.2902 38.9363H85.9432V36.9716H88.0683V36.4103H85.9432V35.0241H88.2115V34.4627H85.2902V38.9363ZM80.1465 34.8408H81.1718C82.3518 34.8408 82.8501 35.7172 82.8501 36.6623C82.8501 37.7334 82.3002 38.5296 81.1718 38.5296H80.1522V34.8408H80.1465ZM79.6883 38.9363H81.2176C82.5007 38.9363 83.3313 37.9855 83.3313 36.6451C83.3313 35.3048 82.4778 34.4398 81.2291 34.4398H79.6883V38.9363ZM75.65 34.7778C76.6925 34.7778 77.208 35.6542 77.208 36.6623C77.208 37.6704 76.7498 38.5926 75.6443 38.5926C74.6133 38.5926 74.0748 37.6704 74.0748 36.668C74.0748 35.6656 74.556 34.7778 75.65 34.7778ZM75.6672 34.3711C74.3211 34.3711 73.588 35.4079 73.588 36.6852C73.588 37.9625 74.3269 38.9993 75.6214 38.9993C77.0247 38.9993 77.6949 37.8881 77.6949 36.6566C77.6949 35.3334 76.9159 34.3711 75.6672 34.3711ZM69.8132 34.7778C70.8557 34.7778 71.3712 35.6542 71.3712 36.6623C71.3712 37.6704 70.913 38.5926 69.8075 38.5926C68.7764 38.5926 68.238 37.6704 68.238 36.668C68.238 35.6656 68.7192 34.7778 69.8132 34.7778ZM69.8304 34.3711C68.4843 34.3711 67.7511 35.4079 67.7511 36.6852C67.7511 37.9625 68.49 38.9993 69.7846 38.9993C71.1879 38.9993 71.8581 37.8881 71.8581 36.6566C71.8581 35.3334 71.0791 34.3711 69.8304 34.3711ZM62.2924 38.9363C62.5959 37.8594 63.2432 35.6599 63.3635 35.0355H63.3692C63.4609 35.4881 64.1081 37.8881 64.3945 38.9363H64.9043L66.2504 34.4398H65.7922C65.5115 35.448 64.8127 37.7105 64.6695 38.4093H64.6637C64.5778 37.974 63.9076 35.4995 63.6212 34.4398H63.1458C62.8422 35.6083 62.1549 37.9339 62.0575 38.4208H62.0518C61.9601 37.8995 61.3644 35.6943 61.0436 34.4398H60.5625L61.7883 38.9363H62.2924Z" fill="black"/>
<path id="Vector_2" d="M39.1633 17.9164H46.0426V16.7422H37.8516V29.739H46.054V28.559H39.1633V23.4898H45.7161V22.3155H39.1633V17.9164Z" fill="black"/>
<g id="Group">
<path id="Vector_3" d="M55.407 29.7312L60.3617 16.7344H58.9756L56.4667 23.4533C55.7622 25.355 54.9373 27.5087 54.6624 28.5226H54.628C54.3474 27.3884 53.597 25.3264 52.8982 23.3846L50.481 16.7344H49.0547L53.8376 29.7312H55.407Z" fill="black"/>
<path id="Vector_4" d="M90.6167 16.7344L85.6562 29.7312H87.0424L89.557 23.0123C90.2616 21.1106 91.0864 18.9568 91.3613 17.943H91.3957C91.6764 19.0771 92.4267 21.1392 93.1256 23.081L95.5428 29.7312H96.969L92.1919 16.7344H90.6224H90.6167Z" fill="black"/>
<path id="Vector_5" d="M128.179 16.7344L123.219 29.7312H124.605L127.12 23.0123C127.824 21.1106 128.649 18.9568 128.924 17.943H128.958C129.239 19.0771 129.989 21.1392 130.688 23.081L133.105 29.7312H134.532L129.749 16.7344H128.179Z" fill="black"/>
</g>
<path id="Vector_6" d="M65.8367 16.7422H64.5078V29.739H65.8367V16.7422Z" fill="black"/>
<g id="Group_2">
<path id="Vector_7" d="M73.3862 29.7312V24.0719C73.3862 21.7177 73.3976 19.6843 73.3003 18.0805H73.3232C74.1996 19.5239 78.7591 26.8042 80.592 29.7312H82.3104V16.7344H81.0159V22.2562C81.0159 24.3755 80.9987 26.3517 81.119 28.1331H81.0961C80.3171 26.724 75.8836 19.8218 73.9304 16.7401H72.0859V29.7369H73.3862V29.7312Z" fill="black"/>
<path id="Vector_8" d="M119.006 29.7312V16.7344H117.711V22.2562C117.711 24.3755 117.694 26.3517 117.814 28.1331H117.791C117.012 26.724 112.579 19.8218 110.626 16.7401H108.781V23.4934H110.081C110.081 21.3912 110.082 19.5525 109.996 18.0862H110.018C110.895 19.5296 115.454 26.8099 117.287 29.7369H119.006V29.7312Z" fill="black"/>
</g>
<path id="Vector_9" d="M139.97 16.7422H138.641V29.739H139.97V16.7422Z" fill="black"/>
<g id="Group_3">
<path id="Vector_10" d="M143.984 26.1832C144.236 28.0391 145.525 29.8835 148.784 29.8835C151.866 29.8835 153.332 28.2338 153.332 26.2405C153.332 24.6309 152.742 23.176 149.065 22.271C146.722 21.6982 145.926 21.1712 145.926 19.8366C145.926 18.5019 146.888 17.6828 148.63 17.6828C150.606 17.6828 151.431 18.6623 151.7 19.9454H153.063C152.891 18.3072 151.654 16.543 148.693 16.543C145.731 16.543 144.529 18.1296 144.529 19.9397C144.529 21.7497 145.657 22.7521 148.55 23.4681C151.293 24.1383 151.941 24.9688 151.941 26.3607C151.941 27.7527 151.081 28.7722 148.859 28.7722C146.837 28.7722 145.726 27.8328 145.353 26.1832H143.99H143.984Z" fill="black"/>
<path id="Vector_11" d="M33.5338 23.1135C33.5338 19.2242 31.065 16.7383 27.4621 16.7383H23V23.4744H24.3289V17.9182L27.2845 17.9068C30.6984 17.9068 32.1304 20.4328 32.1304 23.1594C32.1304 26.2467 30.5495 28.5609 27.2788 28.5609H26.1848H23V29.7294H27.422C31.1223 29.7294 33.5338 26.9742 33.5338 23.1135Z" fill="black"/>
<path id="Vector_12" d="M155.589 17.369V16.7847H156.059C156.111 16.7847 156.156 16.7847 156.208 16.7962C156.26 16.8019 156.3 16.8134 156.34 16.8363C156.38 16.8535 156.408 16.8821 156.437 16.9222C156.46 16.9623 156.471 17.0081 156.471 17.0769C156.471 17.1571 156.454 17.2201 156.414 17.2659C156.374 17.306 156.328 17.3346 156.271 17.3518C156.214 17.369 156.151 17.3747 156.082 17.3747H155.589V17.369ZM156.174 17.5294C156.248 17.5294 156.311 17.5179 156.38 17.5007C156.449 17.4836 156.5 17.4549 156.546 17.4205C156.592 17.3862 156.632 17.3404 156.655 17.2831C156.683 17.2258 156.695 17.1571 156.695 17.0769C156.695 16.9451 156.655 16.8363 156.569 16.7561C156.483 16.6759 156.334 16.6415 156.116 16.6415H155.4V18.2855H155.601V17.5294H155.967L156.437 18.2855H156.678L156.179 17.5294H156.174ZM155.44 18.6463C155.286 18.5776 155.154 18.4917 155.045 18.3714C154.936 18.2568 154.85 18.1194 154.787 17.9647C154.724 17.81 154.696 17.6382 154.696 17.4606C154.696 17.2831 154.724 17.117 154.787 16.9566C154.85 16.8019 154.936 16.6644 155.045 16.5499C155.154 16.4353 155.286 16.3494 155.44 16.2807C155.595 16.2119 155.761 16.1833 155.939 16.1833C156.116 16.1833 156.282 16.2177 156.431 16.2807C156.58 16.3494 156.712 16.4353 156.821 16.5499C156.93 16.6644 157.016 16.7962 157.079 16.9566C157.142 17.1112 157.17 17.2773 157.17 17.4606C157.17 17.6439 157.142 17.81 157.079 17.9647C157.016 18.1194 156.93 18.2568 156.821 18.3714C156.712 18.4859 156.58 18.5776 156.431 18.6463C156.282 18.7093 156.116 18.7437 155.939 18.7437C155.761 18.7437 155.595 18.7093 155.44 18.6463ZM156.506 18.8239C156.683 18.7437 156.838 18.6406 156.976 18.5089C157.107 18.3771 157.216 18.2167 157.291 18.0392C157.365 17.8616 157.405 17.6668 157.405 17.4664C157.405 17.2659 157.365 17.0769 157.291 16.8936C157.216 16.716 157.107 16.5613 156.976 16.4296C156.844 16.2979 156.683 16.1948 156.506 16.1146C156.328 16.0344 156.139 16 155.933 16C155.727 16 155.538 16.0401 155.36 16.1146C155.183 16.1948 155.028 16.2979 154.891 16.4296C154.759 16.5613 154.65 16.716 154.575 16.8936C154.495 17.0711 154.461 17.2602 154.461 17.4664C154.461 17.6726 154.501 17.8616 154.575 18.0392C154.656 18.2167 154.759 18.3714 154.891 18.5089C155.022 18.6463 155.183 18.7494 155.36 18.8239C155.538 18.9041 155.733 18.9385 155.933 18.9385C156.134 18.9385 156.323 18.8984 156.506 18.8239Z" fill="black"/>
</g>
</g>
</g>
</svg>
