<?xml version="1.0" encoding="UTF-8"?>
<svg id="Livello_1" data-name="Livello 1" xmlns="http://www.w3.org/2000/svg" viewBox="0 0 480 480">
  <defs>
    <style>
      .cls-1 {
        fill: #595757;
      }
    </style>
  </defs>
  <path class="cls-1" d="M107.61,239.71V34.61c0-3.9,.89-4.94,4.85-4.88,16.94,.26,33.86,.26,50.78,0,4.32,0,5.02,1.37,4.99,5.21V209.34c0,4.1,.7,5.58,5.21,5.44,24.32-.59,48.69,.86,73-.92,18.24-1.31,34.94-6.8,47.99-20.41,9.01-9.73,14.4-22.26,15.25-35.5,1.25-13.38,.53-26.69-5.08-39.23-6.72-15.09-18.74-24.06-33.99-29.28-14.53-4.96-29.64-5.58-44.81-5.58q-8.09,0-8.09-8.37V33.66c0-2.04,0-3.71,2.79-3.71,22.73,0,45.51-.39,67.57,6.22,43.56,13.11,72.89,40.46,81.73,85.97,7.58,39.04,1.09,75.6-26.38,106.35-16.4,18.38-37.53,28.5-61.35,33.63-22.04,4.36-44.46,6.45-66.92,6.22-14.25,.14-28.53,.2-42.78,0-3.88,0-4.49,1.14-4.49,4.71,0,57.39,0,114.78,.17,172.16,0,4.13-1.09,5.1-5.1,5.05-16.73-.26-33.51-.26-50.33,0-4.15,0-5.38-.81-5.38-5.21,.33-68.54,.46-136.99,.36-205.35Z"/>
</svg>